<?xml version="1.0" standalone="no"?>
<!DOCTYPE svg PUBLIC "-//W3C//DTD SVG 20010904//EN"
 "http://www.w3.org/TR/2001/REC-SVG-20010904/DTD/svg10.dtd">
<svg version="1.0" xmlns="http://www.w3.org/2000/svg"
 width="1024.000000pt" height="1024.000000pt" viewBox="0 0 1024.000000 1024.000000"
 preserveAspectRatio="xMidYMid meet">

<g transform="translate(0.000000,1024.000000) scale(0.100000,-0.100000)"
fill="#000000" stroke="none">
<path d="M1781 7682 c-19 -9 -44 -30 -55 -45 -20 -28 -21 -41 -24 -465 -3
-494 -4 -486 73 -529 37 -21 53 -23 208 -23 l167 0 0 -1981 c0 -1874 1 -1983
17 -2012 27 -45 78 -69 136 -64 40 3 56 11 85 41 l37 36 3 1990 2 1990 2685 0
2685 0 0 -1981 c0 -1970 0 -1982 20 -2014 23 -36 81 -65 133 -65 41 0 92 31
117 72 20 33 20 55 20 2011 l0 1977 168 0 c188 0 219 8 259 69 l23 34 0 437 0
437 -23 34 c-12 19 -38 42 -57 51 -33 17 -213 18 -3340 18 -3127 0 -3307 -1
-3339 -18z m6469 -537 l0 -255 -3125 0 -3125 0 0 255 0 255 3125 0 3125 0 0
-255z"/>
<path d="M3936 6014 c-128 -31 -257 -127 -340 -252 -49 -74 -183 -341 -267
-529 -29 -67 -57 -120 -60 -117 -4 2 -10 23 -13 47 -9 57 -39 105 -72 113 -14
4 -98 -2 -186 -13 -176 -22 -199 -32 -231 -96 -26 -53 -34 -174 -14 -214 26
-50 60 -58 200 -44 113 10 207 14 207 9 0 -2 -32 -37 -71 -78 -97 -102 -178
-212 -212 -287 -58 -129 -58 -126 -55 -1047 3 -835 3 -845 24 -872 11 -15 33
-37 48 -48 26 -20 43 -21 324 -24 254 -3 302 -1 339 13 83 32 121 102 143 268
6 45 14 85 18 88 4 4 106 15 227 25 194 17 329 19 1150 19 829 0 958 -2 1183
-19 l252 -20 0 -37 c0 -57 29 -199 50 -238 22 -45 45 -66 93 -86 30 -12 88
-15 324 -15 279 0 289 1 328 23 26 14 48 37 63 67 l23 45 -4 865 c-3 950 1
885 -65 1016 -35 70 -85 135 -194 255 -43 48 -78 88 -78 91 0 2 62 -2 138 -8
212 -19 219 -19 253 15 27 28 29 35 29 108 0 62 -5 88 -22 123 -37 72 -64 84
-243 105 -140 17 -161 17 -184 4 -31 -17 -49 -52 -59 -111 -4 -24 -11 -42 -16
-41 -5 1 -29 47 -52 103 -71 166 -209 440 -261 520 -84 128 -189 216 -311 263
l-57 22 -1145 2 c-963 1 -1154 -1 -1204 -13z m2379 -226 c94 -49 138 -106 234
-303 49 -99 137 -287 197 -419 l108 -239 142 -148 c153 -159 194 -223 214
-328 14 -74 13 -860 -1 -936 -21 -113 -87 -203 -181 -245 -78 -34 -188 -43
-477 -37 -266 5 -353 15 -380 41 -24 25 31 42 284 85 334 58 495 89 528 103
31 12 47 36 47 67 0 24 -58 92 -114 133 -51 36 -66 36 -406 -6 -599 -75 -864
-90 -1510 -83 -575 6 -725 16 -1253 88 -120 16 -241 29 -268 29 -49 0 -53 -2
-120 -68 -56 -55 -69 -74 -69 -98 0 -61 9 -64 440 -149 300 -59 340 -70 340
-90 0 -39 -195 -59 -514 -52 -273 5 -322 13 -401 66 -52 35 -101 100 -122 164
-15 45 -17 108 -21 475 -2 279 0 448 8 495 19 123 56 183 217 348 160 163 140
131 338 564 192 421 239 494 350 547 l60 28 1140 -2 1140 -3 50 -27z"/>
<path d="M3961 5591 c-47 -50 -324 -582 -319 -613 l3 -23 1466 -3 c1257 -2
1468 0 1478 12 14 16 -6 59 -176 375 -115 214 -154 275 -178 285 -9 3 -516 6
-1127 6 l-1111 0 -36 -39z"/>
<path d="M3279 4473 c-39 -34 -89 -136 -89 -184 0 -48 37 -84 98 -98 504 -111
549 -119 590 -102 28 12 104 90 145 151 23 33 21 73 -3 95 -13 12 -90 34 -218
62 -108 24 -254 57 -324 73 -70 17 -136 30 -147 30 -11 0 -34 -12 -52 -27z"/>
<path d="M6570 4430 c-157 -38 -301 -72 -320 -77 -24 -5 -39 -17 -48 -36 -20
-41 -3 -73 83 -164 l73 -76 58 6 c68 8 401 77 517 108 97 27 122 52 113 118
-7 49 -47 129 -82 162 -40 38 -88 33 -394 -41z"/>
<path d="M4450 4447 c-72 -17 -112 -39 -162 -89 -163 -163 -136 -501 57 -693
112 -112 246 -160 430 -153 93 4 119 8 170 32 64 29 123 80 157 135 l21 33 15
-28 c37 -73 120 -136 209 -159 67 -18 210 -20 285 -4 148 31 300 147 365 280
103 210 79 450 -58 573 -83 75 -107 81 -344 81 -194 0 -214 -2 -266 -23 -72
-29 -133 -82 -171 -148 -16 -30 -32 -54 -34 -54 -2 0 -12 17 -23 38 -28 55
-130 146 -188 167 -62 24 -378 31 -463 12z m439 -152 c107 -59 155 -158 156
-320 0 -137 -21 -205 -84 -266 -62 -60 -110 -73 -244 -66 -154 8 -231 43 -313
144 -52 64 -83 144 -91 237 -11 136 32 237 122 282 49 24 55 25 225 22 173 -3
176 -3 229 -33z m896 24 c51 -14 108 -73 129 -135 34 -99 13 -253 -47 -357
-35 -60 -107 -124 -175 -155 -52 -24 -68 -26 -187 -27 -116 0 -135 2 -172 22
-98 53 -138 143 -138 308 0 103 2 114 32 177 37 78 97 141 156 162 52 18 341
22 402 5z"/>
</g>
</svg>
