<?xml version="1.0" standalone="no"?>
<!DOCTYPE svg PUBLIC "-//W3C//DTD SVG 20010904//EN"
 "http://www.w3.org/TR/2001/REC-SVG-20010904/DTD/svg10.dtd">
<svg version="1.0" xmlns="http://www.w3.org/2000/svg"
 width="1024.000000pt" height="1024.000000pt" viewBox="0 0 1024.000000 1024.000000"
 preserveAspectRatio="xMidYMid meet">

<g transform="translate(0.000000,1024.000000) scale(0.100000,-0.100000)"
fill="#000000" stroke="none">
<path d="M0 5120 l0 -5120 5120 0 5120 0 0 5120 0 5120 -5120 0 -5120 0 0
-5120z m3731 508 c-56 -76 -154 -267 -279 -548 -61 -135 -137 -303 -171 -374
-33 -71 -61 -131 -61 -134 0 -3 237 -1 528 4 679 12 2081 12 2746 0 l518 -9
-7 22 c-3 12 -34 79 -67 149 -33 70 -100 217 -150 327 -99 223 -220 459 -279
549 -22 32 -38 60 -36 62 1 2 25 -7 52 -20 45 -21 58 -36 142 -163 102 -154
245 -428 343 -658 35 -82 106 -233 156 -335 90 -180 114 -252 114 -336 0 -31
-2 -32 -67 -48 -111 -27 -581 -112 -836 -151 l-237 -37 -49 45 c-30 29 -65 50
-92 57 -28 8 -135 13 -299 13 -327 1 -357 -6 -448 -96 l-63 -62 -69 0 -69 0
-63 62 c-91 90 -114 95 -443 95 -169 0 -275 -4 -304 -12 -27 -7 -61 -28 -91
-56 l-49 -45 -138 21 c-415 63 -730 119 -917 162 l-88 20 7 65 c10 91 31 157
75 233 21 36 79 162 130 280 141 329 301 641 433 844 44 66 60 83 102 102 28
13 54 24 58 24 4 0 -10 -24 -32 -52z m-705 -812 c3 -8 -7 -64 -21 -124 -19
-81 -31 -112 -43 -114 -35 -7 -231 13 -297 29 -64 16 -72 21 -92 58 -38 66
-29 85 49 112 134 46 392 71 404 39z m4435 -2 c96 -16 204 -48 226 -66 9 -7 8
-19 -4 -51 -24 -63 -39 -75 -118 -92 -85 -19 -257 -33 -283 -24 -21 8 -51 104
-59 192 l-6 57 75 0 c41 0 117 -7 169 -16z m-4506 -569 c-6 -72 -9 -79 -52
-127 -45 -51 -45 -52 -41 -113 5 -77 45 -149 98 -176 52 -27 389 -71 656 -86
l111 -6 64 45 c111 78 191 118 239 118 32 0 41 -3 37 -14 -24 -62 -29 -110
-23 -227 15 -281 62 -441 173 -589 70 -93 154 -169 227 -206 l71 -35 -137 3
c-124 3 -139 5 -160 25 -21 20 -34 22 -173 23 -82 1 -155 1 -162 1 -11 -1
-187 -243 -199 -274 -3 -10 4 -22 19 -31 21 -15 160 -16 1424 -14 1504 3 1448
1 1421 52 -18 33 -166 242 -181 254 -8 7 -70 12 -164 13 -144 1 -153 0 -183
-23 -29 -21 -42 -23 -168 -25 -75 -1 -130 0 -122 3 73 26 149 77 205 136 172
182 248 382 262 688 5 120 3 141 -15 188 l-20 52 44 0 c52 0 92 -19 220 -101
83 -54 96 -59 146 -59 125 0 625 58 694 81 64 20 113 108 114 200 0 50 -3 58
-35 89 -40 38 -51 68 -59 159 l-6 65 26 -25 c43 -39 197 -221 222 -261 17 -28
25 -61 32 -140 17 -185 9 -724 -16 -1105 l-6 -93 -99 0 -99 0 0 328 c-1 180
-5 347 -9 372 -11 55 -48 90 -97 90 -42 0 -189 -65 -469 -209 -243 -124 -293
-155 -301 -187 -7 -29 6 -53 80 -140 57 -66 276 -361 307 -411 12 -21 10 -26
-26 -64 -22 -23 -58 -54 -79 -70 l-39 -29 -1592 0 -1592 0 -29 22 c-43 32
-124 111 -124 121 0 19 229 326 348 466 58 69 67 107 31 140 -35 32 -370 206
-596 310 -119 54 -163 62 -202 35 -48 -34 -51 -58 -51 -429 l0 -345 -98 0 -99
0 -6 98 c-3 54 -11 271 -18 483 -13 396 -5 640 22 719 18 54 243 330 257 316
2 -3 1 -39 -3 -81z m115 -199 c139 -24 137 -23 143 -52 l5 -26 -72 7 c-163 16
-196 30 -196 83 0 19 3 22 13 14 7 -6 55 -18 107 -26z m4220 -1 c0 -38 -34
-52 -155 -67 l-110 -14 -3 24 c-2 13 -2 25 0 27 2 2 50 11 108 20 57 9 113 21
124 25 32 13 36 12 36 -15z m-3627 -101 l229 -38 -47 -23 c-30 -16 -56 -22
-73 -19 -15 3 -99 19 -187 36 -184 35 -200 40 -208 70 -5 20 -3 21 26 16 18
-3 135 -22 260 -42z m3197 22 c0 -14 -4 -27 -9 -30 -5 -4 -103 -22 -217 -41
l-208 -34 -50 22 -51 22 250 41 c307 51 285 50 285 20z"/>
<path d="M5076 4210 c-102 -31 -102 -157 0 -190 39 -13 97 -6 131 15 31 20 48
79 33 114 -18 45 -107 78 -164 61z m95 -47 c32 -19 34 -25 18 -56 l-12 -21 -8
22 c-9 24 -29 30 -29 8 0 -7 -10 -16 -22 -20 -19 -5 -20 -8 -8 -15 25 -16 3
-24 -27 -9 -23 11 -28 20 -28 48 0 55 59 77 116 43z"/>
<path d="M3847 3123 c-14 -13 -6 -81 11 -103 20 -24 98 -38 146 -26 31 8 32
24 10 89 l-16 47 -72 0 c-40 0 -76 -3 -79 -7z m158 -55 c8 -28 12 -54 9 -57
-3 -3 -33 -6 -66 -6 -51 0 -63 4 -79 24 -19 23 -26 71 -12 84 3 4 35 7 69 7
l63 0 16 -52z"/>
</g>
</svg>
