<?xml version="1.0" standalone="no"?>
<!DOCTYPE svg PUBLIC "-//W3C//DTD SVG 20010904//EN"
 "http://www.w3.org/TR/2001/REC-SVG-20010904/DTD/svg10.dtd">
<svg version="1.0" xmlns="http://www.w3.org/2000/svg"
 width="1024.000000pt" height="1024.000000pt" viewBox="0 0 1024.000000 1024.000000"
 preserveAspectRatio="xMidYMid meet">

<g transform="translate(0.000000,1024.000000) scale(0.100000,-0.100000)"
fill="#000000" stroke="none">
<path d="M1784 7655 c-75 -45 -74 -38 -74 -523 l0 -429 23 -34 c40 -61 71 -69
255 -69 l162 0 0 -1962 c0 -1849 1 -1965 18 -1997 9 -19 30 -44 45 -55 28 -20
40 -21 402 -21 362 0 374 1 402 21 62 45 63 52 63 457 l0 367 2025 0 2025 0 0
-367 c0 -405 1 -412 63 -457 28 -20 40 -21 417 -21 377 0 389 1 417 21 15 11
36 36 45 55 17 32 18 148 18 1997 l0 1962 150 0 c164 0 197 7 240 55 l25 27 3
447 3 447 -23 35 c-13 19 -39 42 -58 51 -33 17 -212 18 -3320 18 l-3285 0 -41
-25z m6446 -510 l0 -255 -3110 0 -3110 0 0 255 0 255 3110 0 3110 0 0 -255z
m-440 -2420 l0 -1875 -175 0 -175 0 0 1633 c0 1534 -1 1634 -18 1667 -9 19
-32 45 -51 57 l-34 23 -2239 -2 -2240 -3 -33 -36 c-26 -29 -35 -49 -40 -90 -3
-30 -5 -773 -3 -1652 l3 -1597 -172 0 -173 0 0 1875 0 1875 2675 0 2675 0 0
-1875z m-660 963 l0 -253 -2022 2 -2023 3 -3 250 -2 250 2025 0 2025 0 0 -252z
m0 -838 l0 -290 -2025 0 -2025 0 0 290 0 290 2025 0 2025 0 0 -290z m0 -855
l0 -285 -2025 0 -2025 0 0 285 0 285 2025 0 2025 0 0 -285z"/>
</g>
</svg>
