<?xml version="1.0" standalone="no"?>
<!DOCTYPE svg PUBLIC "-//W3C//DTD SVG 20010904//EN"
 "http://www.w3.org/TR/2001/REC-SVG-20010904/DTD/svg10.dtd">
<svg version="1.0" xmlns="http://www.w3.org/2000/svg"
 width="1024.000000pt" height="1024.000000pt" viewBox="0 0 1024.000000 1024.000000"
 preserveAspectRatio="xMidYMid meet">

<g transform="translate(0.000000,1024.000000) scale(0.100000,-0.100000)"
fill="#000000" stroke="none">
<path d="M0 5120 l0 -5120 5120 0 5120 0 0 5120 0 5120 -5120 0 -5120 0 0
-5120z m5925 151 c154 -14 358 -39 377 -46 13 -5 58 -85 58 -104 0 -4 -24 -4
-52 0 -413 62 -1854 62 -2358 0 -41 -5 -77 -8 -79 -5 -3 2 7 29 21 58 25 50
29 54 70 60 89 12 368 38 493 46 191 12 1316 5 1470 -9z m-2158 -201 c-81
-162 -150 -336 -254 -647 l-85 -253 -49 -41 c-50 -42 -67 -71 -26 -45 84 54
3420 55 3530 1 41 -20 33 -2 -22 47 l-48 43 -82 245 c-144 428 -223 621 -303
738 -33 47 -31 49 36 26 39 -14 54 -26 81 -68 122 -192 299 -627 364 -896 l38
-156 50 -50 c53 -53 84 -119 106 -222 14 -67 9 -75 -82 -131 l-73 -43 -41 40
c-66 63 -113 82 -205 82 -68 0 -87 -4 -141 -31 -43 -22 -74 -46 -99 -79 l-37
-48 -1295 -4 c-1255 -3 -1295 -3 -1310 15 -59 74 -86 97 -141 122 -56 25 -70
27 -149 23 -78 -4 -93 -8 -138 -37 -29 -18 -62 -45 -75 -60 l-23 -28 -73 46
c-41 25 -79 54 -85 63 -24 38 39 217 101 288 23 27 52 101 128 330 147 441
235 649 332 782 27 37 44 50 81 61 26 7 48 13 49 13 1 -1 -26 -58 -60 -126z
m-641 -601 c52 -13 89 -52 104 -111 10 -34 8 -51 -7 -97 l-18 -56 -155 -3
c-96 -2 -170 1 -195 8 -118 34 -129 143 -20 210 88 55 196 73 291 49z m4192
-5 c60 -20 142 -79 160 -117 12 -24 11 -33 -5 -64 -34 -69 -56 -77 -219 -81
-180 -5 -209 0 -229 38 -23 45 -20 141 7 175 48 62 177 84 286 49z m-3669
-776 c41 -15 87 -54 109 -93 l21 -35 -199 0 -199 0 -10 -37 c-15 -52 -13 -72
8 -118 32 -69 102 -115 174 -115 47 0 118 39 145 80 19 29 23 46 20 93 l-3 57
38 0 c37 0 37 0 37 -42 0 -69 -18 -113 -66 -167 -80 -89 -216 -116 -319 -63
-107 54 -153 184 -104 292 33 74 111 143 183 161 35 9 127 2 165 -13z m3158
-7 c51 -26 107 -86 132 -141 73 -162 -67 -336 -254 -317 -121 12 -209 98 -230
224 -10 63 0 85 38 81 31 -3 31 -3 29 -58 -3 -72 26 -125 87 -157 78 -41 165
-22 228 50 37 42 48 88 39 152 l-7 45 -201 2 -201 3 49 53 c82 89 194 113 291
63z m-3623 -40 c36 -27 70 -51 76 -53 9 -3 8 -16 -4 -51 -9 -26 -16 -67 -16
-90 0 -36 -4 -45 -27 -59 -16 -9 -91 -62 -167 -118 l-139 -101 6 78 c9 113 29
167 97 263 33 47 71 106 83 133 12 26 23 47 25 47 1 0 31 -22 66 -49z m3969
-19 c21 -37 62 -102 92 -144 29 -42 59 -94 65 -115 12 -46 25 -183 17 -183 -4
0 -76 50 -161 111 l-155 110 -6 47 c-4 26 -13 67 -21 91 -8 25 -13 45 -11 46
20 9 90 62 107 80 13 14 26 25 29 25 3 0 23 -31 44 -68z m-741 -154 c9 -133
73 -226 184 -268 75 -28 187 -25 249 7 48 25 106 85 130 133 10 19 19 37 21
39 3 3 132 -84 253 -172 l74 -53 -2 -95 c-6 -353 -45 -675 -102 -846 -25 -76
-85 -148 -137 -164 -25 -7 -128 -9 -307 -7 -266 4 -271 4 -339 31 l-68 27
-1245 0 c-1210 0 -1245 -1 -1302 -20 -108 -36 -151 -41 -402 -41 -270 0 -278
2 -331 58 -15 15 -36 49 -48 75 -49 111 -111 526 -126 838 l-7 135 119 86
c134 97 210 149 218 149 2 0 10 -15 16 -34 6 -19 29 -55 51 -80 55 -62 128
-90 224 -84 173 11 298 135 299 296 l0 62 1287 0 1286 0 5 -72z"/>
<path d="M4953 3361 c-17 -11 -36 -27 -41 -37 -8 -15 -37 -17 -283 -21 -344
-4 -417 -8 -451 -23 -42 -20 -47 -60 -10 -75 9 -4 179 -12 377 -17 314 -9 362
-12 373 -27 57 -73 51 -71 203 -71 l139 0 43 44 42 43 342 6 c354 6 382 9 407
49 8 14 6 22 -12 40 -22 23 -24 23 -373 26 l-351 3 -37 39 -38 40 -149 0
c-130 0 -153 -3 -181 -19z m137 -131 c0 -82 -3 -100 -15 -100 -12 0 -15 17
-15 90 0 83 -1 90 -20 90 -15 0 -20 -7 -20 -25 0 -16 6 -25 15 -25 8 0 15 -7
15 -15 0 -8 -6 -14 -12 -12 -9 1 -14 -15 -16 -50 -5 -88 -20 -60 -24 43 -2 53
-1 98 1 100 2 2 24 4 48 4 l43 0 0 -100z m50 65 c0 -19 5 -35 10 -35 6 0 10
16 10 35 l0 35 60 0 c33 0 60 -4 60 -10 0 -5 -7 -10 -15 -10 -12 0 -15 -17
-15 -90 0 -53 -4 -90 -10 -90 -6 0 -10 37 -10 90 0 83 -1 90 -20 90 -22 0 -24
-10 -20 -117 2 -77 -18 -87 -22 -11 -4 74 -28 77 -28 4 0 -31 -4 -56 -10 -56
-6 0 -10 40 -10 100 0 60 4 100 10 100 6 0 10 -16 10 -35z m-240 -50 c0 -13
-46 -15 -350 -15 -211 0 -350 4 -350 9 0 15 47 18 383 19 276 2 317 0 317 -13z
m1143 0 c1 -6 -122 -11 -350 -13 -194 -1 -353 2 -353 6 0 5 3 12 7 15 11 12
693 3 696 -8z"/>
<path d="M3215 3123 c-73 -38 -105 -88 -105 -163 0 -118 97 -210 222 -210 97
1 159 45 188 134 27 84 -25 192 -113 235 -53 26 -148 28 -192 4z m200 -47 c53
-41 75 -82 75 -141 0 -93 -58 -148 -155 -148 -128 0 -221 112 -180 218 28 74
82 108 167 102 43 -2 65 -10 93 -31z"/>
<path d="M3214 3025 c-3 -14 -4 -47 -1 -73 13 -118 180 -162 232 -62 22 43 13
89 -26 126 -28 27 -37 29 -114 33 -84 3 -84 3 -91 -24z"/>
<path d="M6855 3121 c-89 -40 -142 -128 -133 -222 8 -83 63 -139 146 -147 161
-15 311 143 261 275 -14 38 -57 83 -96 99 -45 19 -130 17 -178 -5z m183 -39
c17 -13 38 -41 47 -67 25 -65 14 -107 -44 -165 -133 -133 -327 -51 -281 119
31 118 184 179 278 113z"/>
<path d="M6853 3035 c-65 -28 -83 -116 -34 -166 72 -72 221 0 221 106 0 71 -5
75 -84 75 -39 -1 -85 -7 -103 -15z"/>
<path d="M3984 3001 c-10 -10 -1 -19 39 -39 106 -53 101 -53 1130 -50 l952 3
56 23 c31 12 65 32 75 44 l19 21 -560 -5 c-308 -3 -818 -2 -1133 1 -316 3
-576 4 -578 2z"/>
<path d="M3498 2610 c-37 -3 -74 -12 -82 -19 -24 -20 -19 -59 14 -125 63 -123
148 -205 249 -241 97 -34 210 -36 1506 -33 1211 3 1283 4 1335 22 81 27 127
52 176 98 51 47 128 166 142 220 15 56 0 69 -94 79 -94 9 -3149 9 -3246 -1z
m114 -68 c-8 -90 46 -175 144 -223 61 -30 69 -32 251 -40 243 -12 1905 -11
2178 0 116 5 227 14 247 20 105 32 188 128 196 228 l5 56 57 -6 c31 -4 64 -9
73 -13 60 -22 -60 -216 -170 -277 -118 -64 -44 -60 -1413 -65 -857 -2 -1274 0
-1337 7 -102 12 -181 38 -232 76 -70 51 -175 225 -152 248 9 9 67 23 152 36 3
1 4 -21 1 -47z"/>
</g>
</svg>
